<svg width="38" height="125" viewBox="0 0 38 125" fill="none" xmlns="http://www.w3.org/2000/svg">
<path fill-rule="evenodd" clip-rule="evenodd" d="M26.8698 115.994C26.8043 115.759 26.0621 115.367 25.2203 115.124C23.8863 114.739 23.5538 114.83 22.6279 115.835C22.0437 116.469 21.4628 116.892 21.3362 116.775C21.2099 116.658 20.9702 116.711 20.8034 116.892C20.6363 117.073 20.0547 117.24 19.5101 117.262C18.5835 117.301 18.5482 117.341 18.9538 117.891C19.5186 118.658 18.2502 119.424 16.3947 119.437C15.6537 119.442 14.8658 119.643 14.6438 119.884C14.4218 120.125 13.8749 120.303 13.4281 120.28C12.3841 120.227 11.7018 120.962 12.2908 121.505C12.5504 121.744 11.5896 121.956 10.0528 121.999C7.29145 122.075 6.39345 121.836 7.45579 121.309C7.87315 121.103 7.85938 120.829 7.41131 120.416C7.05611 120.089 6.91847 119.655 7.10536 119.452C7.36955 119.166 7.28772 119.09 6.73759 119.113C6.34843 119.129 5.82316 118.952 5.57032 118.719C5.21267 118.389 5.26804 118.289 5.81817 118.266C6.81406 118.224 7.6352 117.213 7.08539 116.706C6.83255 116.473 6.74913 116.149 6.90005 115.985C7.05069 115.822 7.30511 115.953 7.4653 116.277C7.62576 116.601 8.33472 117.063 9.04112 117.302C10.6739 117.856 12.1887 116.965 11.996 115.563C11.8649 114.608 11.8974 114.572 12.9201 114.536C13.5037 114.515 14.038 114.703 14.1072 114.953C14.3292 115.749 14.8821 114.751 14.9931 113.355C15.0521 112.615 15.2104 111.89 15.3452 111.743C15.48 111.597 15.8659 111.732 16.2031 112.043C16.7253 112.524 17.0049 112.403 18.0902 111.225C18.791 110.465 19.2596 109.746 19.1318 109.629C19.0037 109.511 18.9859 108.956 19.0922 108.396C19.233 107.654 19.3287 107.535 19.4464 107.957C19.5702 108.401 19.8416 108.169 20.6109 106.96C21.1628 106.092 22.3107 104.682 23.1618 103.826C24.0903 102.893 24.5801 102.151 24.3855 101.971C24.2074 101.807 24.3087 101.404 24.6111 101.076C24.9135 100.748 25.1008 100.264 25.0272 100C24.9538 99.736 25.0913 99.4644 25.3335 99.3967C25.5753 99.3287 25.6192 99.1311 25.4307 98.9573C25.2287 98.7711 25.3351 98.5777 25.6899 98.486C26.7049 98.2239 27.7007 96.8588 27.6631 95.7809C27.6418 95.1743 27.9039 94.62 28.3068 94.4203C28.8044 94.1738 28.8176 94.0162 28.3568 93.8334C27.8777 93.6435 27.9182 93.4416 28.5261 92.9912C29.0302 92.6177 29.3237 91.9229 29.3203 91.1112C29.3177 90.4031 29.5584 89.5596 29.8554 89.2374C30.1524 88.9152 30.8673 87.7048 31.4441 86.5478C32.1727 85.0864 32.337 84.2975 31.9825 83.965C31.6013 83.6068 31.6304 83.5143 32.0988 83.599C32.8418 83.7327 33.6079 82.1513 33.4342 80.8435C33.3733 80.3868 33.5713 79.8903 33.8743 79.74C34.1769 79.59 34.3881 78.5369 34.3431 77.4C34.2909 76.0859 34.4998 75.1796 34.9163 74.9123C35.2766 74.6808 35.5686 73.9261 35.5661 73.2351C35.5633 72.5439 35.732 71.7926 35.941 71.5659C36.4195 71.0468 37.4385 65.3081 37.3826 63.4474C37.3597 62.6802 37.4506 61.9334 37.5851 61.7875C37.7196 61.6416 37.8111 61.0485 37.7881 60.4689C37.7653 59.8898 37.8292 58.5425 37.9302 57.4748C38.0309 56.4074 37.8583 55.2982 37.5467 55.0109C37.1853 54.6778 37.1842 54.387 37.5436 54.2086C38.2801 53.8432 38.0803 46.8265 37.2824 45.0501C36.9392 44.2859 36.8864 43.481 37.1599 43.1843C37.7668 42.526 37.3796 40.6521 36.4624 39.8065C36.0787 39.4528 35.8936 39.0232 36.0516 38.8518C36.582 38.2764 36.0291 34.8979 35.2239 33.796C34.7856 33.196 34.5373 32.4279 34.6721 32.0891C34.8503 31.6425 34.6142 31.2965 33.8114 30.8286C32.9 30.297 32.8169 30.1283 33.3385 29.8693C33.748 29.6662 33.8031 29.4004 33.4941 29.1156C33.2315 28.8735 33.0856 28.3799 33.1696 28.0182C33.2534 27.6567 33.0903 27.0587 32.807 26.6896C32.5237 26.3205 32.2688 25.6776 32.2409 25.2614C32.2129 24.8447 31.9926 24.3223 31.752 24.1005C31.5111 23.8785 31.4491 23.5503 31.6139 23.3715C31.7835 23.1875 31.6508 22.9976 31.3087 22.9339C30.1863 22.7254 29.1969 20.96 28.2544 17.4838C28.0179 16.6106 27.2803 15.5 26.3519 14.6186C25.4511 13.7638 24.6015 12.5023 24.2585 11.511C23.6203 9.66647 22.1849 8.14443 20.4164 7.43638C19.6063 7.11233 19.3164 6.84626 19.45 6.55007C19.5833 6.25418 19.3679 6.05675 18.7324 5.89255C18.0856 5.72588 17.7966 5.45268 17.7289 4.9437C17.6583 4.4121 17.4116 4.23813 16.7672 4.2651C16.12 4.29187 15.8934 4.13125 15.8736 3.63178C15.8538 3.13172 15.7619 3.05436 15.5107 3.32682C15.3256 3.52772 14.5411 3.2717 13.7672 2.7583C12.9184 2.19518 12.2061 1.99196 11.9716 2.24631C11.7001 2.54089 11.1685 2.28552 10.204 1.39646C9.09119 0.370669 8.731 0.230693 8.33915 0.671771C7.66088 1.43464 7.51508 3.18438 8.15923 2.82814C8.4618 2.66102 9.05247 2.98391 9.70546 3.67277C10.2869 4.28606 10.8938 4.64549 11.0547 4.47101C11.4491 4.04311 13.9665 6.40972 14.5214 7.73027C14.8754 8.57369 15.2628 8.87969 16.4159 9.22719C17.4006 9.52415 17.8329 9.82886 17.7649 10.1781C17.7099 10.461 17.8799 10.7336 18.1432 10.7843C18.406 10.835 18.816 11.713 19.0543 12.7355C19.4207 14.3091 19.6512 14.6482 20.5547 14.9441C21.4444 15.2353 21.5234 15.3428 21.0284 15.5882C20.4888 15.8556 20.7584 16.9303 21.6142 17.9225C21.7649 18.0973 22.1294 18.7577 22.4238 19.3904C22.7181 20.0231 23.1455 20.7126 23.3735 20.9227C23.6012 21.1327 23.6983 21.5421 23.5893 21.8319C23.4367 22.2367 23.5295 22.3297 23.989 22.2328C24.4151 22.1426 24.6038 22.687 24.6444 24.125C24.6831 25.4982 24.9323 26.2518 25.423 26.4808C25.8511 26.6805 26.1805 27.3035 26.2336 28.0133C26.3745 29.8887 27.4486 31.0788 28.8056 30.8632C29.7919 30.7064 29.8846 30.7572 29.4642 31.2249C29.1955 31.5238 29.1851 31.9619 29.441 32.1978C29.7846 32.5145 29.6708 32.7818 29.0065 33.2177C28.4602 33.5761 28.2259 33.9465 28.4106 34.16C28.5777 34.3532 28.821 34.6729 28.9505 34.8707C29.0799 35.0684 29.3082 35.3743 29.4572 35.5509C29.6062 35.7275 29.5372 36.0791 29.3036 36.3326C29.07 36.586 29.025 36.9281 29.2034 37.0925C29.3818 37.2569 29.5662 37.1952 29.6131 36.9549C29.6595 36.7146 29.9001 36.8336 30.1469 37.219C30.3939 37.6047 30.3938 38.0279 30.1466 38.1602C29.58 38.4624 29.4168 40.0035 29.8815 40.6654C30.0746 40.9412 30.1875 41.593 30.1325 42.1139C30.06 42.7964 30.3019 43.2081 30.999 43.587C31.7918 44.0184 31.8326 44.1316 31.2261 44.2134C30.6398 44.2929 30.4856 45.0462 30.4841 47.8324C30.483 49.7678 30.6555 51.5086 30.868 51.7012C31.08 51.8937 31.1512 52.1627 31.0254 52.2991C30.6613 52.6941 30.7825 57.8668 31.1644 58.2188C31.3547 58.3943 31.5332 59.1145 31.5611 59.8198C31.5947 60.6683 31.5055 60.8862 31.2969 60.4643C30.7348 59.3263 29.9614 60.289 29.9718 62.114C29.9775 63.093 29.8262 64.3377 29.6356 64.8796C29.1216 66.3394 28.9032 67.7239 29.0802 68.4002C29.1662 68.7294 29.0205 69.2343 28.7557 69.5216C28.4913 69.8091 28.2494 70.7634 28.2177 71.6427C28.1866 72.522 27.926 73.496 27.6386 73.8078C27.3514 74.1193 27.3233 74.5649 27.5761 74.798C27.8667 75.0658 27.7654 75.5151 27.3008 76.0192C26.8967 76.4575 26.4335 77.3732 26.2721 78.0539C26.1103 78.7344 25.6449 80.198 25.2372 81.3069C24.8295 82.4158 24.6391 83.4545 24.8134 83.6152C24.9881 83.7763 24.8897 84.1696 24.5949 84.4894C24.3002 84.8092 24.1908 85.338 24.3523 85.6646C24.5137 85.9913 24.3995 86.3809 24.0983 86.53C23.7974 86.6793 23.3458 87.3125 23.0947 87.9373C22.7331 88.8369 22.8144 89.1693 23.4857 89.537C23.9515 89.7924 24.0871 89.9214 23.7871 89.8244C23.1355 89.613 22.1351 90.5932 22.321 91.2611C22.3933 91.5209 22.1843 92.0465 21.8563 92.4288C21.5283 92.8111 21.4888 93.0156 21.7685 92.8826C22.4769 92.5464 22.9285 93.062 22.4143 93.6199C22.1807 93.8733 22.1231 94.2038 22.2865 94.3544C22.4495 94.5047 22.3127 94.762 21.9822 94.9262C21.2752 95.2768 20.377 94.6 20.8575 94.0787C21.0391 93.8818 21.0126 93.7278 20.7982 93.7365C20.5842 93.7455 20.4038 94.261 20.397 94.882C20.3907 95.5211 20.232 95.8697 20.0316 95.685C19.5979 95.2852 18.5275 96.369 18.7099 97.0235C18.7822 97.2833 18.5942 97.764 18.2918 98.0921C17.8863 98.532 17.9575 98.8987 18.5626 99.4895L19.383 100.291L18.314 99.8484C17.4529 99.4922 17.1338 99.585 16.6732 100.326C16.3584 100.832 16.2223 101.491 16.3706 101.792C16.5189 102.092 16.4539 102.389 16.2267 102.453C15.9994 102.517 15.705 102.986 15.5727 103.495C15.4077 104.13 15.2309 104.328 15.0109 104.125C14.6143 103.76 12.6359 106.6 12.8086 107.287C12.8738 107.547 12.6578 107.835 12.3287 107.927C11.9434 108.035 11.9242 108.132 12.2748 108.2C13.0014 108.34 9.95049 111.241 9.03656 111.279C8.08725 111.319 7.16927 112.427 7.85928 112.701C8.2565 112.859 8.17072 113.176 7.56535 113.789C7.09513 114.264 6.54889 114.505 6.35157 114.324C6.15423 114.143 5.71944 113.886 5.38582 113.754C4.97721 113.592 4.95508 113.107 5.31833 112.271C5.89948 110.934 5.73738 110.531 4.63536 110.577C4.09525 110.6 4.09577 110.344 4.63766 109.456C5.02399 108.823 5.30225 108.033 5.25547 107.701C5.10735 106.636 1.89355 103.582 1.43965 104.074C0.967066 104.587 2.06673 106.849 2.88297 107.043C3.88698 107.282 3.48697 107.673 2.36809 107.547C1.5408 107.454 1.46074 107.55 1.04903 109.132C0.750865 110.277 0.834317 111.125 1.30946 111.783C1.73556 112.372 1.81046 112.847 1.50143 113.001C0.847751 113.325 1.65358 114.601 2.48968 114.566C3.25856 114.533 3.18524 116.062 2.35119 117.456C1.67863 118.58 2.40686 120.649 3.49428 120.704C4.0275 120.732 4.12823 120.837 3.87962 121.107C3.67659 121.327 3.84441 121.613 4.30203 121.827C4.71991 122.022 5.01744 122.407 4.96397 122.682C4.81052 123.469 5.63624 123.994 6.09533 123.401C6.5755 122.781 8.16825 122.935 8.19471 123.604C8.20458 123.854 7.8914 123.999 7.49848 123.928C6.9848 123.834 6.89385 123.902 7.17515 124.167C8.00122 124.947 10.6636 124.848 12.0252 123.988C12.8299 123.479 13.6035 123.283 13.8631 123.522C14.3602 123.981 14.9109 123.598 14.7233 122.925C14.6572 122.687 14.3733 122.602 14.0921 122.736C13.7452 122.901 13.7125 122.821 13.9896 122.487C14.2145 122.217 14.896 121.886 15.5044 121.753C16.2114 121.597 16.4848 121.393 16.2614 121.188C16.0692 121.01 16.1315 120.748 16.3998 120.605C16.6682 120.462 17.063 120.573 17.277 120.853C17.7471 121.467 18.5911 121.361 20.1746 120.49C21.1443 119.957 21.3283 119.689 21.1759 119.032C21.0106 118.316 21.0615 118.289 21.6349 118.788C22.9258 119.911 24.7516 119.059 24.5356 117.435C24.4382 116.703 24.5697 116.6 25.7077 116.517C26.4127 116.466 26.9358 116.23 26.8698 115.994ZM27.1861 113.725C27.2601 113.32 27.1245 113.117 26.8333 113.198C26.5725 113.272 26.4928 113.6 26.6552 113.93C26.9971 114.621 27.0238 114.61 27.1861 113.725ZM15.2328 109.252C15.1003 108.972 15.3372 109.061 15.7586 109.45C16.18 109.838 16.2879 110.067 15.999 109.958C15.7094 109.849 15.3646 109.531 15.2328 109.252ZM18.1053 102.891C18.0981 102.709 18.4265 102.694 18.8351 102.857C19.4253 103.093 19.4283 103.161 18.8482 103.187C18.4464 103.206 18.1122 103.072 18.1053 102.891ZM24.8485 90.6716C24.6854 90.3412 24.602 90.0165 24.6632 89.9502C24.7244 89.8838 24.9813 90.0202 25.2342 90.2532C25.487 90.4863 25.5704 90.8109 25.4195 90.9747C25.2689 91.1381 25.0119 91.0018 24.8485 90.6716ZM23.131 92.1117C22.9771 91.7886 23.1168 91.7827 23.4874 92.0971C23.8226 92.3817 23.9366 92.6209 23.7409 92.629C23.5451 92.6372 23.2704 92.4045 23.131 92.1117ZM21.9355 14.9215C21.2143 14.5976 21.9154 14.0694 22.6702 14.3686C23.074 14.5289 23.1512 14.7268 22.8695 14.8824C22.6178 15.0214 22.1977 15.0393 21.9355 14.9215Z" fill="#0897AA"/>
</svg>
