<svg width="156" height="156" viewBox="0 0 156 156" fill="none" xmlns="http://www.w3.org/2000/svg">
<path d="M88.426 50.6949L88.738 52.0762L89.9353 51.3201L129.945 26.0549L104.68 66.0647L103.924 67.262L105.305 67.574L151.461 78L105.305 88.426L103.924 88.738L104.68 89.9353L129.945 129.945L89.9353 104.68L88.738 103.924L88.426 105.305L78 151.461L67.574 105.305L67.262 103.924L66.0647 104.68L26.0549 129.945L51.3201 89.9353L52.0762 88.738L50.6949 88.426L4.53858 78L50.6949 67.574L52.0762 67.262L51.3201 66.0647L26.0549 26.0549L66.0647 51.3201L67.262 52.0762L67.574 50.6949L78 4.53858L88.426 50.6949Z" fill="#C4C4C4"/>
<path d="M88.426 50.6949L88.738 52.0762L89.9353 51.3201L129.945 26.0549L104.68 66.0647L103.924 67.262L105.305 67.574L151.461 78L105.305 88.426L103.924 88.738L104.68 89.9353L129.945 129.945L89.9353 104.68L88.738 103.924L88.426 105.305L78 151.461L67.574 105.305L67.262 103.924L66.0647 104.68L26.0549 129.945L51.3201 89.9353L52.0762 88.738L50.6949 88.426L4.53858 78L50.6949 67.574L52.0762 67.262L51.3201 66.0647L26.0549 26.0549L66.0647 51.3201L67.262 52.0762L67.574 50.6949L78 4.53858L88.426 50.6949Z" fill="url(#paint0_linear_102_61)"/>
<path d="M88.426 50.6949L88.738 52.0762L89.9353 51.3201L129.945 26.0549L104.68 66.0647L103.924 67.262L105.305 67.574L151.461 78L105.305 88.426L103.924 88.738L104.68 89.9353L129.945 129.945L89.9353 104.68L88.738 103.924L88.426 105.305L78 151.461L67.574 105.305L67.262 103.924L66.0647 104.68L26.0549 129.945L51.3201 89.9353L52.0762 88.738L50.6949 88.426L4.53858 78L50.6949 67.574L52.0762 67.262L51.3201 66.0647L26.0549 26.0549L66.0647 51.3201L67.262 52.0762L67.574 50.6949L78 4.53858L88.426 50.6949Z" stroke="black" stroke-width="2"/>
<defs>
<linearGradient id="paint0_linear_102_61" x1="78" y1="0" x2="78" y2="156" gradientUnits="userSpaceOnUse">
<stop stop-color="#830097"/>
<stop offset="1" stop-color="white" stop-opacity="0"/>
</linearGradient>
</defs>
</svg>
