<svg width="180" height="180" viewBox="0 0 180 180" fill="none" xmlns="http://www.w3.org/2000/svg">
<path d="M125.117 90.9143L123.055 90.0001L125.117 89.0858L173.59 67.6022L120.87 73.233L118.626 73.4726L119.955 71.6495L151.192 28.8078L108.35 60.0444L106.527 61.3737L106.767 59.1302L112.398 6.40995L90.914 54.8824L89.9998 56.9452L89.0856 54.8824L67.6019 6.40993L73.2327 59.1302L73.4724 61.3737L71.6493 60.0444L28.8076 28.8078L60.0442 71.6495L61.3734 73.4726L59.1299 73.233L6.40969 67.6022L54.8822 89.0858L56.9449 90.0001L54.8822 90.9143L6.40967 112.398L59.1299 106.767L61.3734 106.528L60.0442 108.351L28.8076 151.192L71.6493 119.956L73.4724 118.626L73.2327 120.87L67.6019 173.59L89.0856 125.118L89.9998 123.055L90.914 125.118L112.398 173.59L106.767 120.87L106.527 118.626L108.35 119.956L151.192 151.192L119.955 108.351L118.626 106.528L120.87 106.767L173.59 112.398L125.117 90.9143Z" fill="#C4C4C4"/>
<path d="M125.117 90.9143L123.055 90.0001L125.117 89.0858L173.59 67.6022L120.87 73.233L118.626 73.4726L119.955 71.6495L151.192 28.8078L108.35 60.0444L106.527 61.3737L106.767 59.1302L112.398 6.40995L90.914 54.8824L89.9998 56.9452L89.0856 54.8824L67.6019 6.40993L73.2327 59.1302L73.4724 61.3737L71.6493 60.0444L28.8076 28.8078L60.0442 71.6495L61.3734 73.4726L59.1299 73.233L6.40969 67.6022L54.8822 89.0858L56.9449 90.0001L54.8822 90.9143L6.40967 112.398L59.1299 106.767L61.3734 106.528L60.0442 108.351L28.8076 151.192L71.6493 119.956L73.4724 118.626L73.2327 120.87L67.6019 173.59L89.0856 125.118L89.9998 123.055L90.914 125.118L112.398 173.59L106.767 120.87L106.527 118.626L108.35 119.956L151.192 151.192L119.955 108.351L118.626 106.528L120.87 106.767L173.59 112.398L125.117 90.9143Z" fill="url(#paint0_linear_102_62)"/>
<path d="M125.117 90.9143L123.055 90.0001L125.117 89.0858L173.59 67.6022L120.87 73.233L118.626 73.4726L119.955 71.6495L151.192 28.8078L108.35 60.0444L106.527 61.3737L106.767 59.1302L112.398 6.40995L90.914 54.8824L89.9998 56.9452L89.0856 54.8824L67.6019 6.40993L73.2327 59.1302L73.4724 61.3737L71.6493 60.0444L28.8076 28.8078L60.0442 71.6495L61.3734 73.4726L59.1299 73.233L6.40969 67.6022L54.8822 89.0858L56.9449 90.0001L54.8822 90.9143L6.40967 112.398L59.1299 106.767L61.3734 106.528L60.0442 108.351L28.8076 151.192L71.6493 119.956L73.4724 118.626L73.2327 120.87L67.6019 173.59L89.0856 125.118L89.9998 123.055L90.914 125.118L112.398 173.59L106.767 120.87L106.527 118.626L108.35 119.956L151.192 151.192L119.955 108.351L118.626 106.528L120.87 106.767L173.59 112.398L125.117 90.9143Z" stroke="black" stroke-width="2"/>
<defs>
<linearGradient id="paint0_linear_102_62" x1="179.831" y1="114.07" x2="0.168715" y2="65.9299" gradientUnits="userSpaceOnUse">
<stop stop-color="#830097"/>
<stop offset="1" stop-color="white" stop-opacity="0"/>
</linearGradient>
</defs>
</svg>
