<svg width="385" height="575" viewBox="0 0 385 575" fill="none" xmlns="http://www.w3.org/2000/svg">
<path d="M0 192.379C2.20861e-06 167.115 4.97604 142.099 14.644 118.759C24.312 95.4183 38.4825 74.2105 56.3466 56.3465C74.2106 38.4824 95.4183 24.3119 118.759 14.644C142.099 4.97602 167.116 -9.33622e-06 192.379 0C217.643 9.33624e-06 242.659 4.97605 265.999 14.644C289.34 24.312 310.548 38.4825 328.412 56.3466C346.276 74.2107 360.446 95.4184 370.114 118.759C379.782 142.099 384.758 167.116 384.758 192.379L335.52 192.379C335.52 173.582 331.818 154.968 324.624 137.602C317.431 120.235 306.887 104.455 293.595 91.1632C280.303 77.8714 264.523 67.3277 247.157 60.1342C229.79 52.9407 211.177 49.2382 192.379 49.2382C173.582 49.2382 154.968 52.9406 137.601 60.1341C120.235 67.3276 104.455 77.8713 91.1632 91.1632C77.8713 104.455 67.3277 120.235 60.1342 137.601C52.9406 154.968 49.2382 173.582 49.2382 192.379H0Z" fill="#E99FAC"/>
</svg>
